<svg width="54" height="54" viewBox="0 0 54 54" fill="none" xmlns="http://www.w3.org/2000/svg">
<path d="M45.7712 5.59766C45.4285 5.21753 44.9407 5 44.4287 5H9.57129C9.05933 5 8.57154 5.21753 8.22876 5.59766C7.88819 5.97998 7.72559 6.48975 7.78052 6.99731L11.7444 42.6787C11.8235 43.4038 12.3376 44.0103 13.0386 44.2102L26.5034 48.0576C26.666 48.1038 26.833 48.1279 26.9978 48.1279C27.1648 48.1279 27.3318 48.1038 27.4922 48.0576L40.957 44.2102C41.6602 44.0103 42.1699 43.4038 42.2512 42.6787L46.2173 6.99731C46.2744 6.48975 46.1118 5.97998 45.7712 5.59766ZM36.9294 23.1318L36.1252 36.2451L27.0571 39.2092L17.989 36.2451L17.6462 29.9741H22.2363L22.3506 32.8262L27.0571 34.4214L31.7637 32.8262L32.1086 27.6956H22.0078L21.7793 23.134H32.3394L32.6821 18.5725H16.8398L16.4971 14.011H37.5029L36.9294 23.1318Z" fill="#FDF3F8"/>
</svg>
