<svg width="48" height="48" viewBox="0 0 48 48" fill="none" xmlns="http://www.w3.org/2000/svg">
<path fill-rule="evenodd" clip-rule="evenodd" d="M34 37L43 44V9C43 6.23828 40.7617 4 38 4H11C8.23828 4 6 6.23828 6 9V35C6 37.7617 8.23828 40 11 40H35L34 37ZM27.9102 13C30.9883 13.2305 33.5898 15.2383 33.5898 15.2383C33.5898 15.2383 36.5 19.4297 37 27.6211C34.0586 30.9805 29.6094 31 29.6094 31L28.6914 29.7695C30.2617 29.2305 32.0508 28.2617 33.5898 26.5C31.75 27.8789 28.9805 29 24.5 29C20.0195 29 17.25 27.8789 15.4102 26.5C16.9492 28.2617 18.7383 29.2305 20.3086 29.7695L19.3906 31C19.3906 31 14.9414 30.9805 12 27.6211C12.5 19.4297 15.4102 15.2383 15.4102 15.2383C15.4102 15.2383 17.8594 13.3086 21.0898 13L21.3594 13.5508C18.8281 14.1094 17.3086 15.1914 15.9805 16.3789C16.0374 16.3498 16.0944 16.3208 16.1513 16.2917C18.3835 15.1514 20.6376 14 24.5 14C28.3624 14 30.6165 15.1514 32.8487 16.2917C32.9056 16.3208 32.9626 16.3498 33.0195 16.3789C31.6914 15.1914 30.4219 14.2188 27.6406 13.5508L27.9102 13ZM19 23.5C19 24.8789 19.8984 26 21 26C22.1016 26 23 24.8789 23 23.5C23 22.1211 22.1016 21 21 21C19.8984 21 19 22.1211 19 23.5ZM26 23.5C26 24.8789 26.8984 26 28 26C29.1016 26 30 24.8789 30 23.5C30 22.1211 29.1016 21 28 21C26.8984 21 26 22.1211 26 23.5Z" fill="#FDF3F8"/>
</svg>
