<svg width="51" height="51" viewBox="0 0 51 51" fill="none" xmlns="http://www.w3.org/2000/svg">
<path d="M25.5 5.09998C14.2342 5.09998 5.10001 14.2342 5.10001 25.5C5.10001 35.0592 11.6809 43.0578 20.5561 45.2724C20.4598 44.9969 20.4 44.6748 20.4 44.2797V40.7933C19.5732 40.7933 18.1854 40.7933 17.8367 40.7933C16.4422 40.7933 15.2004 40.1924 14.5994 39.0767C13.9287 37.8383 13.8158 35.9424 12.159 34.7836C11.6676 34.3984 12.0395 33.9568 12.6072 34.0166C13.6531 34.3121 14.5197 35.0293 15.3365 36.0951C16.1467 37.1609 16.5318 37.4033 18.0492 37.4033C18.7863 37.4033 19.8854 37.3601 20.9246 37.1974C21.4824 35.7797 22.4453 34.4748 23.624 33.8605C16.8307 33.1633 13.5867 29.7832 13.5867 25.1945C13.5867 23.2189 14.4301 21.3064 15.8578 19.6994C15.3897 18.099 14.7986 14.8418 16.0404 13.6C19.0951 13.6 20.9445 15.5822 21.3861 16.1168C22.9102 15.5955 24.5836 15.3 26.34 15.3C28.1031 15.3 29.7832 15.5955 31.3106 16.1201C31.7488 15.5888 33.5982 13.6 36.6596 13.6C37.9047 14.8418 37.307 18.1156 36.8356 19.7094C38.2566 21.3164 39.09 23.2222 39.09 25.1945C39.09 29.7799 35.8561 33.1566 29.0727 33.8605C30.9387 34.8334 32.3 37.5693 32.3 39.6312V44.2797C32.3 44.4556 32.2602 44.5851 32.2402 44.7345C40.1891 41.9488 45.9 34.4017 45.9 25.5C45.9 14.2342 36.7658 5.09998 25.5 5.09998Z" fill="#FDF3F8"/>
</svg>
