<svg width="50" height="50" viewBox="0 0 50 50" fill="none" xmlns="http://www.w3.org/2000/svg">
<path d="M41 4H9C6.23828 4 4 6.23828 4 9V41C4 43.7617 6.23828 46 9 46H41C43.7617 46 46 43.7617 46 41V9C46 6.23828 43.7617 4 41 4ZM17 20V39H11V20H17ZM11 14.4688C11 13.0703 12.1992 12 14 12C15.8008 12 16.9297 13.0703 17 14.4688C17 15.8711 15.8789 17 14 17C12.1992 17 11 15.8711 11 14.4688ZM39 39H33C33 39 33 29.7383 33 29C33 27 32 25 29.5 24.9609H29.4219C27 24.9609 26 27.0195 26 29C26 29.9102 26 39 26 39H20V20H26V22.5586C26 22.5586 27.9297 20 31.8086 20C35.7812 20 39 22.7305 39 28.2617V39Z" fill="#FDF3F8"/>
</svg>
